<svg xmlns="http://www.w3.org/2000/svg" width="1400" height="390" viewBox="0 0 1400 390" role="img" aria-labelledby="title desc">
  <title id="title">B2B 로컬기프트 주문부터 재주문까지</title><desc id="desc">요구사항 확인, 표준구성, 공급확인, 견적, 발주, 조달검수, 납품정산, 재주문 순서</desc>
  <defs><marker id="a" markerWidth="9" markerHeight="9" refX="8" refY="3" orient="auto"><path d="M0,0 L9,3 L0,6 Z" fill="#555"/></marker></defs>
  <rect width="1400" height="390" fill="#faf9f6"/><text x="45" y="55" font-family="Arial, sans-serif" font-size="28" font-weight="700" fill="#171717">주문·납품 서비스 흐름</text>
  <g font-family="Arial, sans-serif" text-anchor="middle"><g fill="#fff" stroke="#333" stroke-width="2">
    <rect x="45" y="130" width="135" height="100" rx="7"/><rect x="215" y="130" width="135" height="100" rx="7"/><rect x="385" y="130" width="135" height="100" rx="7"/><rect x="555" y="130" width="135" height="100" rx="7"/><rect x="725" y="130" width="135" height="100" rx="7"/><rect x="895" y="130" width="135" height="100" rx="7"/><rect x="1065" y="130" width="135" height="100" rx="7"/><rect x="1235" y="130" width="120" height="100" rx="7"/>
  </g>
  <g font-size="17" fill="#222"><text x="112" y="172">요구사항</text><text x="112" y="198">행사·수량·예산</text><text x="282" y="172">표준구성</text><text x="282" y="198">옵션 20%</text><text x="452" y="172">공급확인</text><text x="452" y="198">재고·납기</text><text x="622" y="172">샘플·견적</text><text x="622" y="198">포함·제외</text><text x="792" y="172">발주확정</text><text x="792" y="198">발주서·예약금</text><text x="962" y="172">조달·검수</text><text x="962" y="198">표시·수량</text><text x="1132" y="172">납품·정산</text><text x="1132" y="198">인수·상점대금</text><text x="1295" y="172">재주문</text><text x="1295" y="198">피드백·이력</text></g></g>
  <g stroke="#555" stroke-width="2.5" marker-end="url(#a)"><line x1="183" y1="180" x2="205" y2="180"/><line x1="353" y1="180" x2="375" y2="180"/><line x1="523" y1="180" x2="545" y2="180"/><line x1="693" y1="180" x2="715" y2="180"/><line x1="863" y1="180" x2="885" y2="180"/><line x1="1033" y1="180" x2="1055" y2="180"/><line x1="1203" y1="180" x2="1225" y2="180"/></g>
  <rect x="385" y="285" width="630" height="55" rx="27" fill="#17243b"/><text x="700" y="319" text-anchor="middle" font-family="Arial, sans-serif" font-size="18" font-weight="700" fill="#fff">재고 매입은 발주 확정 후 · 각 단계의 책임과 완료조건을 기록</text>
</svg>
